<?xml version="1.0" standalone="no"?>
<!DOCTYPE svg PUBLIC "-//W3C//DTD SVG 20010904//EN"
 "http://www.w3.org/TR/2001/REC-SVG-20010904/DTD/svg10.dtd">
<svg version="1.0" xmlns="http://www.w3.org/2000/svg"
 width="246.000000pt" height="240.000000pt" viewBox="0 0 246.000000 240.000000"
 preserveAspectRatio="xMidYMid meet">
<metadata>
Created by potrace 1.16, written by Peter Selinger 2001-2019
</metadata>
<g transform="translate(0.000000,240.000000) scale(0.100000,-0.100000)"
fill="#000000" stroke="none">
<path d="M0 1185 l0 -1185 483 0 482 1 -60 24 c-135 53 -264 113 -320 150 -90
60 -278 237 -345 325 -164 216 -215 351 -226 600 -8 162 20 444 56 565 11 39
27 95 36 125 8 30 36 98 62 150 38 77 57 103 100 137 100 81 109 41 26 -116
l-56 -106 93 90 c51 50 142 140 203 201 124 123 156 142 291 173 234 53 259
49 -307 50 l-518 1 0 -1185z"/>
<path d="M1800 2365 c0 -2 20 -13 44 -24 121 -53 288 -205 415 -376 89 -120
174 -310 191 -429 4 -28 8 148 9 392 l1 442 -330 0 c-181 0 -330 -2 -330 -5z"/>
<path d="M1640 2330 c0 -5 5 -10 11 -10 5 0 7 5 4 10 -3 6 -8 10 -11 10 -2 0
-4 -4 -4 -10z"/>
<path d="M1291 1710 c-117 -37 -217 -72 -222 -77 -13 -13 -90 -416 -81 -424 4
-4 70 -3 146 2 77 5 141 7 143 5 2 -1 4 -20 6 -42 2 -38 1 -39 -38 -45 -23 -4
2 -6 60 -5 100 1 100 1 100 26 -1 14 -4 37 -8 53 -7 26 -6 27 32 27 48 0 42
-22 71 270 22 221 24 280 13 280 -5 -1 -104 -32 -222 -70z m199 11 c0 -25 -29
-308 -35 -346 l-5 -31 -216 -23 c-118 -13 -216 -22 -218 -20 -3 4 54 311 59
317 3 4 389 121 403 121 6 1 12 -7 12 -18z"/>
<path d="M410 846 c0 -62 -4 -85 -14 -89 -11 -4 -15 10 -18 68 -3 67 -11 96
-22 84 -3 -3 -9 -45 -14 -94 -11 -111 -3 -190 18 -190 11 0 16 13 18 48 2 33
7 47 18 47 11 0 14 -15 14 -66 0 -57 2 -65 18 -62 14 3 18 16 20 76 3 67 4 72
28 78 31 8 29 40 -2 36 -26 -3 -34 20 -34 96 0 39 -4 52 -15 52 -12 0 -15 -16
-15 -84z"/>
<path d="M658 908 c-6 -13 -14 -67 -16 -120 -4 -80 -1 -103 13 -124 14 -22 23
-25 56 -22 35 3 40 1 48 -24 12 -33 46 -29 35 4 -3 11 -9 44 -13 74 -4 30 -10
56 -13 59 -3 3 -22 9 -42 12 -29 5 -36 3 -36 -11 0 -9 7 -19 15 -22 20 -8 20
-64 0 -64 -28 0 -37 38 -30 125 8 93 15 111 40 101 14 -5 17 -15 13 -51 -5
-39 -3 -45 13 -45 16 0 19 8 19 53 0 61 -11 77 -57 77 -23 0 -36 -6 -45 -22z"/>
<path d="M896 915 c-3 -9 -6 -47 -6 -85 0 -50 -4 -69 -15 -73 -11 -5 -15 8
-17 71 -4 100 -22 96 -26 -5 -2 -47 -8 -80 -15 -85 -9 -6 -9 -12 1 -28 6 -11
12 -36 12 -55 0 -24 5 -35 14 -35 11 0 16 14 18 47 5 73 26 66 30 -9 2 -48 7
-63 18 -63 12 0 16 16 18 72 3 68 4 73 28 79 32 8 29 40 -3 36 -21 -3 -22 1
-25 69 -3 70 -18 100 -32 64z"/>
<path d="M1711 896 c-21 -23 -23 -31 -19 -134 3 -119 17 -152 63 -152 45 0 55
27 55 153 0 104 -2 119 -20 137 -27 27 -52 25 -79 -4z m60 -52 c9 -40 10 -125
3 -163 -5 -22 -12 -31 -23 -29 -27 5 -38 182 -14 221 9 16 28 0 34 -29z"/>
<path d="M500 895 c0 -9 9 -15 25 -15 l25 0 0 -115 0 -115 -26 0 c-18 0 -25
-5 -22 -17 3 -16 18 -18 101 -14 31 1 39 31 8 31 -18 0 -20 9 -23 112 -3 99
-1 112 15 116 9 2 17 11 17 18 0 10 -16 14 -60 14 -47 0 -60 -3 -60 -15z"/>
<path d="M1002 893 c2 -12 14 -19 35 -21 l32 -3 3 -126 c2 -90 7 -128 16 -131
9 -3 12 27 12 127 l0 130 33 3 c20 2 32 8 32 18 0 12 -17 16 -83 18 -76 3 -83
1 -80 -15z"/>
<path d="M1198 903 c-1 -4 -2 -70 0 -145 l3 -138 60 0 c46 0 59 3 59 15 0 11
-12 15 -45 15 -45 0 -45 0 -45 35 0 36 3 38 65 47 11 2 20 10 20 18 0 11 -10
14 -42 12 l-43 -4 0 56 0 55 48 3 c34 2 47 7 47 18 0 11 -15 16 -62 18 -34 2
-63 -1 -65 -5z"/>
<path d="M1404 896 c-16 -12 -19 -29 -22 -124 -4 -125 3 -147 50 -157 43 -10
68 20 68 82 0 37 -3 44 -17 41 -13 -2 -19 -15 -21 -46 -2 -33 -7 -42 -22 -42
-24 0 -30 19 -30 95 0 89 9 125 31 125 14 0 19 -9 21 -47 2 -35 7 -48 18 -48
11 0 16 13 18 43 6 76 -42 115 -94 78z"/>
<path d="M1571 891 c-23 -23 -36 -110 -28 -190 7 -61 30 -91 72 -91 32 0 47
23 53 80 4 46 3 50 -17 50 -18 0 -21 -6 -21 -46 0 -41 -2 -45 -22 -42 -21 3
-23 9 -26 78 -4 102 4 140 28 140 17 0 20 -7 20 -50 0 -60 24 -71 34 -16 16
84 -42 138 -93 87z"/>
<path d="M1835 900 c-8 -14 3 -30 21 -30 11 0 14 -21 14 -109 0 -75 -4 -111
-12 -113 -6 -2 -9 -12 -5 -21 4 -12 18 -17 44 -17 86 0 110 42 98 169 -6 63
-11 79 -35 103 -23 22 -37 28 -74 28 -24 0 -48 -4 -51 -10z m115 -66 c11 -28
13 -143 4 -168 -3 -9 -17 -16 -30 -16 -24 0 -24 0 -24 115 0 114 0 115 20 105
12 -6 25 -22 30 -36z"/>
<path d="M2040 906 c-3 -2 -4 -68 -2 -145 l3 -141 60 0 c46 0 59 3 59 15 0 11
-12 15 -45 15 -45 0 -45 0 -45 35 0 36 3 38 65 47 11 2 20 10 20 18 0 11 -10
14 -42 12 l-43 -4 0 56 0 55 48 3 c34 2 47 7 47 18 0 11 -15 16 -60 18 -34 2
-63 1 -65 -2z"/>
<path d="M2433 747 c-42 -134 -169 -327 -261 -392 -23 -16 -83 -62 -133 -101
-122 -96 -230 -159 -357 -211 l-107 -43 443 0 442 0 0 410 c0 226 -1 410 -2
410 -2 0 -13 -33 -25 -73z"/>
</g>
</svg>
